<?xml version="1.0" standalone="no"?>
<!DOCTYPE svg PUBLIC "-//W3C//DTD SVG 20010904//EN"
 "http://www.w3.org/TR/2001/REC-SVG-20010904/DTD/svg10.dtd">
<svg version="1.0" xmlns="http://www.w3.org/2000/svg"
 width="1048.000000pt" height="918.000000pt" viewBox="0 0 1048.000000 918.000000"
 preserveAspectRatio="xMidYMid meet">
<metadata>
Created by potrace 1.16, written by Peter Selinger 2001-2019
</metadata>
<g transform="translate(0.000000,918.000000) scale(0.100000,-0.100000)"
fill="#000000" stroke="none">
<path d="M5060 8743 c-198 -15 -459 -75 -646 -148 -217 -85 -458 -226 -621
-364 l-72 -60 -103 48 c-194 91 -420 156 -649 187 -165 22 -446 22 -603 0
-749 -107 -1394 -569 -1750 -1257 -131 -253 -206 -486 -253 -789 -25 -160 -25
-528 0 -690 86 -557 322 -1021 713 -1400 411 -398 915 -618 1498 -656 l109 -7
-6 -56 c-3 -31 -29 -435 -58 -899 l-54 -842 -71 0 c-57 0 -74 -4 -88 -19 -15
-16 -21 -92 -47 -562 -16 -299 -28 -571 -27 -604 3 -52 6 -61 28 -72 20 -10
605 -13 2885 -13 2573 0 2863 2 2883 16 29 20 29 5 -8 674 -34 630 -23 580
-136 580 -43 0 -66 4 -69 13 -2 6 -26 379 -55 827 -28 448 -53 847 -57 886
l-5 70 155 12 c587 44 1098 284 1507 708 350 363 575 827 657 1354 21 143 24
507 4 650 -78 564 -330 1068 -720 1443 -370 354 -824 572 -1331 638 -225 29
-571 9 -800 -47 -162 -40 -425 -137 -499 -183 -9 -6 -38 11 -95 57 -452 365
-1039 549 -1616 505z"/>
</g>
</svg>
