<?xml version="1.0" standalone="no"?>
<!DOCTYPE svg PUBLIC "-//W3C//DTD SVG 20010904//EN"
 "http://www.w3.org/TR/2001/REC-SVG-20010904/DTD/svg10.dtd">
<svg version="1.0" xmlns="http://www.w3.org/2000/svg"
 width="542.000000pt" height="714.000000pt" viewBox="0 0 542.000000 714.000000"
 preserveAspectRatio="xMidYMid meet">
<metadata>
Created by potrace 1.16, written by Peter Selinger 2001-2019
</metadata>
<g transform="translate(0.000000,714.000000) scale(0.100000,-0.100000)"
fill="#000000" stroke="none">
<path d="M609 6562 c-40 -20 -65 -43 -94 -86 l-40 -58 -3 -976 c-3 -1085 -4
-1059 64 -1262 75 -224 180 -404 320 -550 86 -89 153 -135 251 -175 l58 -24 5
-1423 5 -1423 22 -55 c46 -111 143 -208 253 -252 45 -18 75 -22 165 -23 104 0
114 2 175 32 87 43 135 85 182 157 79 122 72 -7 78 1574 l5 1413 53 18 c247
84 505 448 610 859 l27 107 0 1000 0 1000 -22 36 c-56 89 -140 139 -236 139
-103 0 -179 -48 -227 -143 l-30 -60 0 -866 c0 -484 -4 -883 -10 -905 -12 -54
-38 -87 -90 -113 -92 -48 -189 -18 -238 72 -15 27 -17 117 -22 930 -5 840 -6
902 -23 936 -80 160 -296 199 -419 77 -19 -19 -43 -52 -54 -74 -18 -37 -19
-74 -24 -939 -5 -811 -7 -903 -21 -930 -22 -39 -47 -61 -92 -80 -93 -39 -185
-3 -228 90 -18 38 -19 86 -19 920 l0 880 -24 50 c-46 98 -134 155 -242 155
-48 0 -74 -6 -115 -28z"/>
<path d="M4059 6572 c-265 -107 -561 -625 -693 -1215 -134 -597 -97 -1328 95
-1873 77 -218 212 -435 313 -505 l36 -24 0 -1153 c0 -1303 -3 -1242 74 -1355
56 -83 147 -151 237 -178 103 -31 220 -25 312 19 123 57 219 180 247 316 7 35
9 931 8 2851 l-3 2800 -22 55 c-46 111 -143 208 -253 252 -78 31 -284 37 -351
10z"/>
</g>
</svg>
